<svg width="531" height="296" viewBox="0 0 531 296" fill="none" xmlns="http://www.w3.org/2000/svg">
<g filter="url(#filter0_f_504_44)">
<circle cx="446.072" cy="42.9365" r="77.6256" transform="rotate(15 446.072 42.9365)" fill="#14589C"/>
</g>
<rect width="61" height="3" rx="1.5" transform="matrix(-1 0 0 1 341 197)" fill="#1562AF" fill-opacity="0.14"/>
<rect width="94" height="3" rx="1.5" transform="matrix(-1 0 0 1 441 197)" fill="#1562AF" fill-opacity="0.34"/>
<rect width="82" height="3" rx="1.5" transform="matrix(-1 0 0 1 529 197)" fill="#1562AF" fill-opacity="0.14"/>
<rect width="68" height="3" rx="1.5" transform="matrix(-1 0 0 1 274 197)" fill="#1562AF" fill-opacity="0.34"/>
<rect width="42" height="3" rx="1.5" transform="matrix(-1 0 0 1 200 208)" fill="#1562AF" fill-opacity="0.34"/>
<rect width="32" height="3" rx="1.5" transform="matrix(-1 0 0 1 238 208)" fill="#1562AF" fill-opacity="0.14"/>
<rect width="122" height="3" rx="1.5" transform="matrix(-1 0 0 1 366 208)" fill="#1562AF" fill-opacity="0.14"/>
<rect width="93" height="3" rx="1.5" transform="matrix(-1 0 0 1 465 208)" fill="#1562AF" fill-opacity="0.14"/>
<rect width="58" height="3" rx="1.5" transform="matrix(-1 0 0 1 529 208)" fill="#1562AF" fill-opacity="0.34"/>
<rect width="118" height="3" rx="1.5" transform="matrix(-1 0 0 1 529 30)" fill="#1562AF" fill-opacity="0.14"/>
<rect width="128" height="3" rx="1.5" transform="matrix(-1 0 0 1 529 219)" fill="#1562AF" fill-opacity="0.14"/>
<rect width="112" height="3" rx="1.5" transform="matrix(-1 0 0 1 405 30)" fill="#1562AF" fill-opacity="0.34"/>
<rect width="121" height="3" rx="1.5" transform="matrix(-1 0 0 1 348 219)" fill="#1562AF" fill-opacity="0.14"/>
<rect x="249" y="30" width="38" height="3" rx="1.5" fill="#1562AF" fill-opacity="0.14"/>
<rect x="354" y="219" width="41" height="3" rx="1.5" fill="#1562AF" fill-opacity="0.34"/>
<rect width="92" height="3" rx="1.5" transform="matrix(-1 0 0 1 429 41)" fill="#1562AF" fill-opacity="0.14"/>
<rect width="99" height="3" rx="1.5" transform="matrix(-1 0 0 1 421 230)" fill="#1562AF" fill-opacity="0.14"/>
<rect width="94" height="3" rx="1.5" transform="matrix(-1 0 0 1 529 41)" fill="#1562AF" fill-opacity="0.34"/>
<rect width="102" height="3" rx="1.5" transform="matrix(-1 0 0 1 529 230)" fill="#1562AF" fill-opacity="0.34"/>
<rect width="23" height="3" rx="1.5" transform="matrix(-1 0 0 1 303 41)" fill="#1562AF" fill-opacity="0.34"/>
<rect width="23" height="3" rx="1.5" transform="matrix(-1 0 0 1 332 41)" fill="#1562AF" fill-opacity="0.14"/>
<rect width="62" height="3" rx="1.5" transform="matrix(-1 0 0 1 316 230)" fill="#1562AF" fill-opacity="0.34"/>
<rect width="68" height="3" rx="1.5" transform="matrix(-1 0 0 1 274 41)" fill="#1562AF" fill-opacity="0.14"/>
<rect width="79" height="3" rx="1.5" transform="matrix(-1 0 0 1 277 84)" fill="#1562AF" fill-opacity="0.14"/>
<rect width="79" height="3" rx="1.5" transform="matrix(-1 0 0 1 277 241)" fill="#1562AF" fill-opacity="0.34"/>
<rect width="127" height="3" rx="1.5" transform="matrix(-1 0 0 1 410 84)" fill="#1562AF" fill-opacity="0.14"/>
<rect width="127" height="3" rx="1.5" transform="matrix(-1 0 0 1 410 241)" fill="#1562AF" fill-opacity="0.14"/>
<rect width="29" height="3" rx="1.5" transform="matrix(-1 0 0 1 445 84)" fill="#1562AF" fill-opacity="0.34"/>
<rect width="29" height="3" rx="1.5" transform="matrix(-1 0 0 1 445 241)" fill="#1562AF" fill-opacity="0.34"/>
<rect width="78" height="3" rx="1.5" transform="matrix(-1 0 0 1 529 84)" fill="#1562AF" fill-opacity="0.14"/>
<rect width="78" height="3" rx="1.5" transform="matrix(-1 0 0 1 529 241)" fill="#1562AF" fill-opacity="0.14"/>
<rect width="53" height="3" rx="1.5" transform="matrix(-1 0 0 1 219 95)" fill="#1562AF" fill-opacity="0.34"/>
<rect width="53" height="3" rx="1.5" transform="matrix(-1 0 0 1 219 252)" fill="#1562AF" fill-opacity="0.14"/>
<rect width="126" height="3" rx="1.5" transform="matrix(-1 0 0 1 351 95)" fill="#1562AF" fill-opacity="0.14"/>
<rect width="126" height="3" rx="1.5" transform="matrix(-1 0 0 1 351 252)" fill="#1562AF" fill-opacity="0.14"/>
<rect width="27" height="3" rx="1.5" transform="matrix(-1 0 0 1 384 95)" fill="#1562AF" fill-opacity="0.34"/>
<rect width="45" height="3" rx="1.5" transform="matrix(-1 0 0 1 435 95)" fill="#1562AF" fill-opacity="0.14"/>
<rect width="78" height="3" rx="1.5" transform="matrix(-1 0 0 1 435 252)" fill="#1562AF" fill-opacity="0.34"/>
<rect width="60" height="3" rx="1.5" transform="matrix(-1 0 0 1 501 95)" fill="#1562AF" fill-opacity="0.14"/>
<rect width="88" height="3" rx="1.5" transform="matrix(-1 0 0 1 529 252)" fill="#1562AF" fill-opacity="0.14"/>
<rect width="22" height="3" rx="1.5" transform="matrix(-1 0 0 1 529 95)" fill="#1562AF" fill-opacity="0.14"/>
<rect width="64" height="3" rx="1.5" transform="matrix(-1 0 0 1 529 106)" fill="#1562AF" fill-opacity="0.34"/>
<rect width="64" height="3" rx="1.5" transform="matrix(-1 0 0 1 529 263)" fill="#1562AF" fill-opacity="0.34"/>
<rect width="86" height="3" rx="1.5" transform="matrix(-1 0 0 1 459 106)" fill="#1562AF" fill-opacity="0.14"/>
<rect width="154" height="3" rx="1.5" transform="matrix(-1 0 0 1 459 263)" fill="#1562AF" fill-opacity="0.14"/>
<defs>
<filter id="filter0_f_504_44" x="0.426712" y="-402.708" width="891.29" height="891.29" filterUnits="userSpaceOnUse" color-interpolation-filters="sRGB">
<feFlood flood-opacity="0" result="BackgroundImageFix"/>
<feBlend mode="normal" in="SourceGraphic" in2="BackgroundImageFix" result="shape"/>
<feGaussianBlur stdDeviation="184" result="effect1_foregroundBlur_504_44"/>
</filter>
</defs>
</svg>
